HIERARCHY
ROOT ui
{
	 OFFSET 0 0 0
	 CHANNELS 3 XPosition YPosition Z Position
	 EndSite
	 {
	 OFFSET 0 -1 0
	 }
}
ROOT li
{
	 OFFSET 0 0 0
	 CHANNELS 3 XPosition YPosition Z Position
	 EndSite
	 {
	 OFFSET 0 -1 0
	 }
}
ROOT ul
{
	 OFFSET 0 0 0
	 CHANNELS 3 XPosition YPosition Z Position
	 EndSite
	 {
	 OFFSET 0 -1 0
	 }
}
ROOT ll
{
	 OFFSET 0 0 0
	 CHANNELS 3 XPosition YPosition Z Position
	 EndSite
	 {
	 OFFSET 0 -1 0
	 }
}
ROOT tt
{
	 OFFSET 0 0 0
	 CHANNELS 3 XPosition YPosition Z Position
	 EndSite
	 {
	 OFFSET 0 -1 0
	 }
}
ROOT tb
{
	 OFFSET 0 0 0
	 CHANNELS 3 XPosition YPosition Z Position
	 EndSite
	 {
	 OFFSET 0 -1 0
	 }
}
ROOT td
{
	 OFFSET 0 0 0
	 CHANNELS 3 XPosition YPosition Z Position
	 EndSite
	 {
	 OFFSET 0 -1 0
	 }
}
ROOT v
{
	 OFFSET 0 0 0
	 CHANNELS 3 XPosition YPosition Z Position
	 EndSite
	 {
	 OFFSET 0 -1 0
	 }
}
ROOT bn
{
	 OFFSET 0 0 0
	 CHANNELS 3 XPosition YPosition Z Position
	 EndSite
	 {
	 OFFSET 0 -1 0
	 }
}
MOTION
Frames: 27
Frame Time: 0.002
0.019260154724121094	-0.001298619031906128	0		0.55665625	-2.7231494140625	0		-0.9883648681640625	0.11616567993164062	0		-0.15110116577148439	-3.265442138671875	0		2.27041357421875	-2.0252799072265626	0		3.595935302734375	-0.9395818481445313	0		4.7994541015625	-0.5814312744140625	0		5.940111328125	0.3964384765625	0		-0.331160400390625	5.87248193359375	0		
0.010501615524291992	0.00867580509185791	0		0.5187742309570312	-2.71283984375	0		-1.0001177368164063	0.1262238540649414	0		-0.18098402404785155	-3.253199462890625	0		2.27669677734375	-2.004596435546875	0		3.563358642578125	-0.9114761962890625	0		4.791830078125	-0.5586909790039063	0		5.9316611328125	0.401173095703125	0		-0.33372259521484376	5.8763984375	0		
0.006645814895629883	0.0045526838302612305	0		0.5776249389648438	-2.732764892578125	0		-0.9259378051757813	0.12416767883300782	0		-0.17512457275390625	-3.27043896484375	0		2.260878662109375	-1.99965576171875	0		3.54646923828125	-0.9155706176757813	0		4.78305322265625	-0.554931640625	0		5.92815234375	0.38502593994140627	0		-0.3333091125488281	5.87623779296875	0		
0.016802286148071287	-0.004781140804290772	0		0.5238701782226562	-2.72831787109375	0		-1.0015467529296875	0.1339318389892578	0		-0.14806312561035156	-3.2799794921875	0		2.2631279296875	-1.9969552001953126	0		3.55097412109375	-0.8949332275390625	0		4.77740673828125	-0.547203857421875	0		5.920525390625	0.38979498291015624	0		-0.2147186279296875	5.88756494140625	0		
0.010057352066040038	-0.01193988037109375	0		0.5501187133789063	-2.731899169921875	0		-0.9861657104492187	0.1365176544189453	0		-0.16888436889648437	-3.2879599609375	0		2.27054248046875	-1.988334716796875	0		3.5484609375	-0.8822135620117187	0		4.77488818359375	-0.5355084228515625	0		5.9192080078125	0.363259765625	0		-0.34753683471679686	5.865986328125	0		
0.011715665817260742	0.007763372898101807	0		0.5275850830078125	-2.724901123046875	0		-0.992580078125	0.1503328399658203	0		-0.13756610107421874	-3.2926279296875	0		2.27908984375	-1.975744384765625	0		3.547234619140625	-0.85251416015625	0		4.77554052734375	-0.5158473510742188	0		5.926630859375	0.3624364013671875	0		-0.2137838897705078	5.88704296875	0		
0.018017984390258788	-0.005627837181091309	0		0.5529749755859374	-2.73053271484375	0		-1.0039880981445313	0.16016903686523437	0		-0.17109884643554688	-3.291519287109375	0		2.285659423828125	-1.9671463623046874	0		3.544859375	-0.83980908203125	0		4.76111767578125	-0.5069967956542969	0		5.8973564453125	0.43021975708007815	0		-0.3465720520019531	5.86539208984375	0		
0.00864094352722168	0.003146862983703613	0		0.5514656982421875	-2.73285595703125	0		-1.0034788208007812	0.15981715393066406	0		-0.12261083984375	-3.294469482421875	0		2.28132373046875	-1.9554295654296876	0		3.5536953125	-0.814253173828125	0		4.7557412109375	-0.49826177978515623	0		5.91809912109375	0.3701942443847656	0		-0.36118661499023436	5.85622998046875	0		
0.002091958045959473	-0.004145214080810547	0		0.549998046875	-2.73520703125	0		-1.0029419555664063	0.15942990112304686	0		-0.18696957397460937	-3.28803857421875	0		2.25202783203125	-1.9434195556640625	0		3.519366943359375	-0.804171630859375	0		4.73858447265625	-0.47438534545898436	0		5.90840087890625	0.35088330078125	0		-0.22742529296875	5.87618310546875	0		
-0.05736665725708008	-0.004804080963134766	0		0.536527099609375	-2.739434326171875	0		-0.9983448486328125	0.16296080017089845	0		-0.14560137939453124	-3.30595947265625	0		2.259721923828125	-1.9338924560546875	0		3.49131396484375	-0.7731831665039063	0		4.74320068359375	-0.469794189453125	0		5.90879248046875	0.350284912109375	0		-0.34606597900390623	5.86625927734375	0		
0.01432304859161377	0.005874866962432861	0		0.530269287109375	-2.726775146484375	0		-0.9887022705078125	0.17040191650390624	0		-0.17190048217773438	-3.297058837890625	0		2.25350390625	-1.9172119140625	0		3.51284228515625	-0.7758352661132812	0		4.72708984375	-0.44295889282226564	0		5.91058251953125	0.34442962646484376	0		-0.3436309509277344	5.862796875	0		
-0.06312639617919921	0.007391321182250977	0		0.5577967529296874	-2.730560302734375	0		-0.9182401123046875	0.1640614013671875	0		-0.11249290466308594	-3.311251220703125	0		2.24821044921875	-1.905565185546875	0		3.503783935546875	-0.7441240844726562	0		4.72783984375	-0.4263556823730469	0		5.91444775390625	0.32809564208984376	0		-0.37920828247070315	5.85978564453125	0		
0.021207633972167968	-0.00812986660003662	0		0.5542946166992188	-2.734979248046875	0		-0.9976461791992187	0.17057061767578124	0		-0.17888365173339843	-3.30689404296875	0		2.250785400390625	-1.9030391845703125	0		3.4763349609375	-0.7422095336914063	0		4.71247314453125	-0.41757659912109374	0		5.89133349609375	0.338485107421875	0		-0.3456782531738281	5.86589404296875	0		
-0.0691984634399414	-4.912810027599334E-4	0		0.5797579956054687	-2.740777587890625	0		-0.921278564453125	0.15912239074707032	0		-0.13139126586914063	-3.3109736328125	0		2.2484912109375	-1.888473388671875	0		3.487990478515625	-0.7308052368164063	0		4.69709033203125	-0.40882354736328125	0		5.89657666015625	0.31682681274414065	0		-0.36036154174804685	5.85558447265625	0		
0.012312321662902833	-7.841999642550945E-6	0		0.5293758544921875	-2.73264794921875	0		-1.0025948486328125	0.17462455749511718	0		-0.18086830139160157	-3.31086181640625	0		2.24706103515625	-1.8839393310546875	0		3.485650634765625	-0.7182493286132813	0		4.6888349609375	-0.3891837158203125	0		5.90839306640625	0.32606509399414063	0		-0.34578131103515625	5.86589794921875	0		
0.016859285354614256	0.003420706033706665	0		0.567762939453125	-2.7436376953125	0		-0.923067138671875	0.1761149139404297	0		-0.14536557006835937	-3.3128193359375	0		2.25673095703125	-1.8715599365234374	0		3.47458837890625	-0.68360302734375	0		4.6775224609375	-0.37452853393554686	0		5.89897607421875	0.36704364013671875	0		-0.3453197021484375	5.86537451171875	0		
0.017376630783081055	0.0028890459537506104	0		0.5314446411132813	-2.731708251953125	0		-0.9965448608398437	0.176498291015625	0		-0.13663507080078124	-3.297452392578125	0		2.2592939453125	-1.8691065673828124	0		3.467233642578125	-0.6740204467773437	0		4.67131494140625	-0.3529538269042969	0		5.89989013671875	0.33328118896484377	0		-0.3448288879394531	5.8648408203125	0		
0.013876242637634277	-0.0016007779836654664	0		0.5829003295898437	-2.74087890625	0		-0.9319890747070313	0.17615986633300781	0		-0.13809872436523438	-3.2999677734375	0		2.213188720703125	-1.8420565185546875	0		3.461885009765625	-0.6664737548828125	0		4.66087890625	-0.3523401184082031	0		5.8931591796875	0.334329345703125	0		-0.3452887878417969	5.86531201171875	0		
0.014464723587036132	-0.002146998882293701	0		0.5295404663085937	-2.737752685546875	0		-0.9413880615234375	0.17673419189453124	0		-0.13749789428710937	-3.3005146484375	0		2.25278125	-1.8430787353515625	0		3.422702392578125	-0.6485118408203125	0		4.64068115234375	-0.33560952758789064	0		5.88451953125	0.3752186279296875	0		-0.21242205810546874	5.8881240234375	0		
0.015096747398376464	-0.0026977710723876955	0		0.5581834106445313	-2.738648681640625	0		-1.0107018432617187	0.18104730224609375	0		-0.19873368835449218	-3.29129736328125	0		2.202413330078125	-1.84398583984375	0		3.391513671875	-0.6346502685546875	0		4.62746484375	-0.3239654235839844	0		5.8910703125	0.31184591674804685	0		-0.34411819458007814	5.86421240234375	0		
0.022858856201171875	0.00366175103187561	0		0.537990234375	-2.7299384765625	0		-1.0059779052734374	0.18443760681152344	0		-0.15796516418457032	-3.286348388671875	0		2.232272705078125	-1.830885498046875	0		3.4372646484375	-0.6297401123046875	0		4.630390625	-0.30451495361328124	0		5.8945126953125	0.3316278686523437	0		-0.327357666015625	5.87345751953125	0		
0.023574312210083007	0.0031087141036987304	0		0.5636659545898437	-2.73579638671875	0		-0.9421449584960937	0.1930937805175781	0		-0.19120558166503906	-3.285481689453125	0		2.199242431640625	-1.8119990234375	0		3.41438427734375	-0.5979678955078125	0		4.6203203125	-0.28789215087890624	0		5.88596337890625	0.3725570068359375	0		-0.3296567687988281	5.8759384765625	0		
-0.056697105407714846	0.0015609170198440552	0		0.5505086669921875	-2.73116796875	0		-0.9545476684570312	0.1806931915283203	0		-0.1265109100341797	-3.2938271484375	0		2.203060546875	-1.8085616455078124	0		3.383091552734375	-0.60208203125	0		4.61617041015625	-0.28032717895507814	0		5.8828515625	0.3562631530761719	0		-0.2098400115966797	5.88590869140625	0		
-0.05592573928833008	0.0010120749473571777	0		0.5871710205078124	-2.74415185546875	0		-0.9597167358398437	0.18520433044433593	0		-0.18757269287109374	-3.284611083984375	0		2.205896728515625	-1.8061005859375	0		3.3838720703125	-0.6025778198242188	0		4.5959599609375	-0.27954434204101564	0		5.87262451171875	0.3402247009277344	0		-0.21014688110351562	5.88636962890625	0		
-0.055129741668701174	4.6729901432991026E-4	0		0.5360966186523437	-2.738042724609375	0		-0.9589241943359375	0.184642578125	0		-0.1517176513671875	-3.285590576171875	0		2.210800537109375	-1.8006527099609375	0		3.37877880859375	-0.5949844970703125	0		4.5949345703125	-0.26597808837890624	0		5.883970703125	0.3547237548828125	0		-0.34272299194335937	5.86546630859375	0		
0.026721261978149415	9.285500049591065E-4	0		0.5669978637695312	-2.73793994140625	0		-0.9489977416992188	0.19197161865234375	0		-0.18754069519042968	-3.26367822265625	0		2.18488330078125	-1.7838126220703125	0		3.370883544921875	-0.5743416137695313	0		4.58702001953125	-0.24630903625488282	0		5.8882109375	0.36947265625	0		-0.34201617431640624	5.864919921875	0		
0.027609598159790038	3.9561599493026734E-4	0		0.5689744873046875	-2.736472900390625	0		-0.9740257568359375	0.19873536682128906	0		-0.12266739654541016	-3.2720029296875	0		2.222760986328125	-1.7887503662109374	0		3.377686279296875	-0.5828699340820312	0		4.58484033203125	-0.25269853210449217	0		5.89232373046875	0.35138232421875	0		-0.3621888427734375	5.87063623046875	0		
